<?xml version="1.0" encoding="UTF-8"?>
<!DOCTYPE svg PUBLIC "-//W3C//DTD SVG 1.1//EN" "http://www.w3.org/Graphics/SVG/1.1/DTD/svg11.dtd">
<!-- Creator: CorelDRAW 2019 (64-Bit) -->
<svg xmlns="http://www.w3.org/2000/svg" xml:space="preserve" width="4.34025in" height="1.1251in" version="1.1" style="shape-rendering:geometricPrecision; text-rendering:geometricPrecision; image-rendering:optimizeQuality; fill-rule:evenodd; clip-rule:evenodd"
viewBox="0 0 3467.76 898.93"
 xmlns:xlink="http://www.w3.org/1999/xlink"
 xmlns:xodm="http://www.corel.com/coreldraw/odm/2003">
 <defs>
  <style type="text/css">
   <![CDATA[
    .fil0 {fill:#6F3282;fill-rule:nonzero}
    .fil1 {fill:#6F3284;fill-rule:nonzero}
    .fil2 {fill:#AF47AB;fill-rule:nonzero}
    .fil3 {fill:#F487D2;fill-rule:nonzero}
   ]]>
  </style>
 </defs>
 <g id="Layer_x0020_1">
  <metadata id="CorelCorpID_0Corel-Layer"/>
  <path class="fil0" d="M1156.52 392.94l0 -258.03 -101.72 0 0 -59.88 277.09 0 0 59.88 -101.72 0 0 258.03 -73.65 0zm432.89 -317.91l73.65 0 0 317.91 -73.65 0 0 -317.91zm-144.47 317.91l-73.52 0 0 -317.91 73.52 0 0 317.91zm149.87 -130.31l-155.28 0 0 -62.32 155.28 0 0 62.32zm211.17 -59.62l153.1 0 0 57.3 -153.1 0 0 -57.3zm5.54 130.82l173.06 0 0 59.1 -246.19 0 0 -317.91 240.26 0 0 58.98 -167.13 0 0 199.83z"/>
  <path class="fil0" d="M1048.88 802.2l141.76 -317.91 72.62 0 142.28 317.91 -77.26 0 -116.27 -280.69 29.1 0 -116.79 280.69 -75.45 0zm70.95 -68.11l19.44 -55.88 163.53 0 20.08 55.88 -203.05 0zm423.23 73.52c-25.37,0 -49.7,-3.35 -73.01,-10.17 -23.31,-6.82 -42.1,-15.58 -56.39,-26.53l24.98 -55.49c13.65,9.66 29.74,17.64 48.41,23.82 18.54,6.31 37.34,9.4 56.53,9.4 14.55,0 26.27,-1.42 35.15,-4.38 8.88,-2.83 15.58,-6.83 19.83,-11.98 4.25,-5.15 6.31,-11.07 6.31,-17.77 0,-8.5 -3.35,-15.19 -9.92,-20.22 -6.69,-5.02 -15.45,-9.01 -26.39,-12.23 -10.94,-3.22 -22.92,-6.18 -36.05,-9.14 -13.26,-2.84 -26.39,-6.44 -39.53,-10.69 -13.26,-4.25 -25.24,-9.66 -36.18,-16.35 -10.95,-6.57 -19.7,-15.33 -26.53,-26.27 -6.82,-10.95 -10.3,-24.85 -10.3,-41.85 0,-18.16 4.89,-34.64 14.81,-49.7 9.79,-15.06 24.59,-27.04 44.55,-35.92 19.83,-8.88 44.68,-13.39 74.68,-13.39 19.96,0 39.66,2.32 59.1,7.08 19.31,4.77 36.44,11.71 51.25,21.11l-22.66 55.88c-14.81,-8.5 -29.74,-14.81 -44.55,-18.93 -14.81,-3.99 -29.36,-6.05 -43.65,-6.05 -14.16,0 -25.75,1.67 -34.89,4.89 -9.14,3.35 -15.58,7.73 -19.57,13.01 -3.99,5.28 -5.92,11.46 -5.92,18.41 0,8.11 3.35,14.68 10.05,19.7 6.56,5.02 15.32,9.15 26.27,12.1 10.94,2.97 22.92,6.05 36.18,9.01 13.13,3.09 26.27,6.57 39.53,10.56 13.14,3.99 25.11,9.27 36.05,15.84 10.95,6.69 19.83,15.45 26.66,26.39 6.82,10.94 10.17,24.72 10.17,41.33 0,17.9 -5.02,34.25 -14.94,49.06 -10.04,14.81 -24.98,26.78 -44.81,35.8 -19.83,9.14 -44.94,13.65 -75.2,13.65zm289.84 0c-25.37,0 -49.7,-3.35 -73.01,-10.17 -23.31,-6.82 -42.1,-15.58 -56.39,-26.53l24.98 -55.49c13.65,9.66 29.74,17.64 48.41,23.82 18.54,6.31 37.34,9.4 56.53,9.4 14.55,0 26.27,-1.42 35.15,-4.38 8.88,-2.83 15.58,-6.83 19.83,-11.98 4.25,-5.15 6.31,-11.07 6.31,-17.77 0,-8.5 -3.35,-15.19 -9.92,-20.22 -6.69,-5.02 -15.45,-9.01 -26.39,-12.23 -10.94,-3.22 -22.92,-6.18 -36.05,-9.14 -13.26,-2.84 -26.4,-6.44 -39.53,-10.69 -13.26,-4.25 -25.24,-9.66 -36.18,-16.35 -10.95,-6.57 -19.7,-15.33 -26.53,-26.27 -6.82,-10.95 -10.3,-24.85 -10.3,-41.85 0,-18.16 4.89,-34.64 14.81,-49.7 9.79,-15.06 24.59,-27.04 44.54,-35.92 19.83,-8.88 44.68,-13.39 74.69,-13.39 19.96,0 39.66,2.32 59.1,7.08 19.31,4.77 36.44,11.71 51.25,21.11l-22.66 55.88c-14.81,-8.5 -29.74,-14.81 -44.55,-18.93 -14.81,-3.99 -29.36,-6.05 -43.65,-6.05 -14.16,0 -25.75,1.67 -34.9,4.89 -9.14,3.35 -15.58,7.73 -19.57,13.01 -3.99,5.28 -5.92,11.46 -5.92,18.41 0,8.11 3.35,14.68 10.05,19.7 6.56,5.02 15.32,9.15 26.27,12.1 10.94,2.97 22.92,6.05 36.18,9.01 13.13,3.09 26.27,6.57 39.53,10.56 13.14,3.99 25.11,9.27 36.05,15.84 10.95,6.69 19.83,15.45 26.66,26.39 6.82,10.94 10.17,24.72 10.17,41.33 0,17.9 -5.02,34.25 -14.94,49.06 -10.04,14.81 -24.98,26.78 -44.81,35.8 -19.83,9.14 -44.94,13.65 -75.2,13.65zm185.42 -5.41l0 -317.91 73.52 0 0 317.91 -73.52 0zm253.4 5.41c-25.37,0 -49.7,-3.35 -73.01,-10.17 -23.31,-6.82 -42.1,-15.58 -56.39,-26.53l24.98 -55.49c13.65,9.66 29.74,17.64 48.41,23.82 18.54,6.31 37.34,9.4 56.53,9.4 14.55,0 26.27,-1.42 35.15,-4.38 8.88,-2.83 15.58,-6.83 19.83,-11.98 4.25,-5.15 6.31,-11.07 6.31,-17.77 0,-8.5 -3.35,-15.19 -9.92,-20.22 -6.69,-5.02 -15.45,-9.01 -26.39,-12.23 -10.94,-3.22 -22.92,-6.18 -36.05,-9.14 -13.26,-2.84 -26.4,-6.44 -39.53,-10.69 -13.26,-4.25 -25.24,-9.66 -36.18,-16.35 -10.95,-6.57 -19.7,-15.33 -26.53,-26.27 -6.82,-10.95 -10.3,-24.85 -10.3,-41.85 0,-18.16 4.89,-34.64 14.81,-49.7 9.79,-15.06 24.59,-27.04 44.54,-35.92 19.83,-8.88 44.68,-13.39 74.69,-13.39 19.96,0 39.66,2.32 59.1,7.08 19.31,4.77 36.44,11.71 51.25,21.11l-22.66 55.88c-14.81,-8.5 -29.74,-14.81 -44.55,-18.93 -14.81,-3.99 -29.36,-6.05 -43.65,-6.05 -14.16,0 -25.75,1.67 -34.9,4.89 -9.14,3.35 -15.58,7.73 -19.57,13.01 -3.99,5.28 -5.92,11.46 -5.92,18.41 0,8.11 3.35,14.68 10.05,19.7 6.56,5.02 15.32,9.15 26.27,12.1 10.94,2.97 22.92,6.05 36.18,9.01 13.13,3.09 26.27,6.57 39.53,10.56 13.14,3.99 25.11,9.27 36.05,15.84 10.95,6.69 19.83,15.45 26.66,26.39 6.82,10.94 10.17,24.72 10.17,41.33 0,17.9 -5.02,34.25 -14.94,49.06 -10.04,14.81 -24.98,26.78 -44.81,35.8 -19.83,9.14 -44.94,13.65 -75.2,13.65zm185.42 -5.41l0 -317.91 73.52 0 0 317.91 -73.52 0zm107.13 0l141.77 -317.91 72.62 0 142.28 317.91 -77.26 0 -116.27 -280.69 29.1 0 -116.79 280.69 -75.45 0zm70.95 -68.11l19.44 -55.88 163.53 0 20.08 55.88 -203.05 0zm318.81 68.11l0 -317.91 73.52 0 0 257.91 159.53 0 0 60 -233.05 0zm378.81 5.41c-25.37,0 -49.7,-3.35 -73,-10.17 -23.31,-6.82 -42.1,-15.58 -56.39,-26.53l24.98 -55.49c13.65,9.66 29.74,17.64 48.41,23.82 18.54,6.31 37.34,9.4 56.53,9.4 14.55,0 26.27,-1.42 35.15,-4.38 8.88,-2.83 15.58,-6.83 19.82,-11.98 4.25,-5.15 6.31,-11.07 6.31,-17.77 0,-8.5 -3.35,-15.19 -9.92,-20.22 -6.69,-5.02 -15.45,-9.01 -26.39,-12.23 -10.94,-3.22 -22.92,-6.18 -36.05,-9.14 -13.26,-2.84 -26.39,-6.44 -39.53,-10.69 -13.26,-4.25 -25.24,-9.66 -36.18,-16.35 -10.95,-6.57 -19.7,-15.33 -26.53,-26.27 -6.82,-10.95 -10.3,-24.85 -10.3,-41.85 0,-18.16 4.89,-34.64 14.81,-49.7 9.79,-15.06 24.6,-27.04 44.55,-35.92 19.83,-8.88 44.68,-13.39 74.69,-13.39 19.95,0 39.66,2.32 59.1,7.08 19.31,4.77 36.44,11.71 51.25,21.11l-22.66 55.88c-14.81,-8.5 -29.74,-14.81 -44.55,-18.93 -14.81,-3.99 -29.36,-6.05 -43.65,-6.05 -14.16,0 -25.75,1.67 -34.89,4.89 -9.14,3.35 -15.58,7.73 -19.57,13.01 -3.99,5.28 -5.93,11.46 -5.93,18.41 0,8.11 3.35,14.68 10.05,19.7 6.56,5.02 15.32,9.15 26.27,12.1 10.94,2.97 22.92,6.05 36.18,9.01 13.14,3.09 26.27,6.57 39.53,10.56 13.13,3.99 25.11,9.27 36.05,15.84 10.95,6.69 19.83,15.45 26.66,26.39 6.82,10.94 10.17,24.72 10.17,41.33 0,17.9 -5.02,34.25 -14.94,49.06 -10.04,14.81 -24.98,26.78 -44.81,35.8 -19.83,9.14 -44.93,13.65 -75.2,13.65z"/>
  <polygon class="fil1" points="225.26,136.6 225.26,399.97 450.52,536.53 450.52,399.97 450.52,313.91 450.52,273.17 450.52,136.6 "/>
  <polygon class="fil2" points="450.51,136.6 450.51,273.17 450.51,399.97 450.51,536.53 675.39,400.18 675.39,136.6 "/>
  <polygon class="fil3" points="225.26,136.6 450.52,273.17 675.39,136.81 675.39,136.38 450.52,0 "/>
  <polygon class="fil1" points="450.51,498.98 450.51,762.34 675.76,898.93 675.76,762.34 675.76,676.29 675.76,635.57 675.76,498.98 "/>
  <polygon class="fil2" points="675.75,498.98 675.75,635.57 675.75,762.34 675.75,898.93 900.63,762.58 900.63,498.98 "/>
  <polygon class="fil3" points="450.51,498.98 675.76,635.57 900.63,499.21 900.63,498.74 675.76,362.39 "/>
  <polygon class="fil1" points="-0,498.98 -0,762.34 225.26,898.93 225.26,762.34 225.26,676.29 225.26,635.57 225.26,498.98 "/>
  <polygon class="fil2" points="225.26,498.98 225.26,635.57 225.26,762.34 225.26,898.93 450.14,762.58 450.14,498.98 "/>
  <polygon class="fil3" points="-0,498.98 225.26,635.57 450.14,499.21 450.14,498.74 225.26,362.39 "/>
  <polygon class="fil0" points="972.94,802.19 985.15,802.19 985.15,74.98 972.94,74.98 "/>
 </g>
</svg>
