<?xml version="1.0" encoding="UTF-8"?>
<svg version="1.1" xmlns="http://www.w3.org/2000/svg" width="1085" height="312">
<path d="M0 0 C2.52636659 1.16270102 4.88491893 2.47527739 7.27368164 3.90258789 C8.33570801 4.53422852 9.39773437 5.16586914 10.49194336 5.81665039 C11.64846738 6.51177781 12.80487715 7.20709536 13.96118164 7.90258789 C15.16037074 8.61905587 16.35975563 9.33519624 17.55932617 10.05102539 C43.82114947 25.74589188 43.82114947 25.74589188 53.51548767 31.85552979 C55.79283526 33.25714714 57.95173266 34.35562629 60.40675354 35.47845459 C64.25929237 37.37416883 66.86201469 38.9177675 69.96118164 41.90258789 C71.38075854 46.51462736 71.26260115 50.78359396 70.90956306 55.53055573 C70.74305783 57.83868164 70.66718181 60.13482209 70.61412048 62.44818115 C70.44734945 69.00623383 70.11789149 75.5533885 69.73925781 82.10229492 C67.94610618 99.46819967 67.94610618 99.46819967 72.74362183 115.48269653 C77.34139318 119.64739936 82.62535012 121.87541862 88.41506958 123.93890381 C92.01774978 125.30249091 95.08767017 127.24117654 98.30102539 129.33618164 C99.40510742 130.00584961 100.50918945 130.67551758 101.64672852 131.36547852 C102.71987305 132.01709961 103.79301758 132.6687207 104.89868164 133.34008789 C105.96795898 133.9878418 107.03723633 134.6355957 108.13891602 135.30297852 C109.8294905 136.3291523 111.52012818 137.3570714 113.16992188 138.44760132 C116.82177607 140.81735579 120.30501761 142.4257771 124.42407227 143.85620117 C130.82854827 146.39169595 136.04895281 149.05978565 139.96118164 154.90258789 C144.02990702 166.11526707 142.99054412 179.33808281 142.69897461 191.05786133 C142.57913543 195.93111754 142.65004008 200.78036707 142.77125835 205.65279484 C143.36738771 233.81551622 143.36738771 233.81551622 137.99087524 241.84518433 C133.20808422 246.38889977 127.75749893 248.79137556 121.5847168 250.93499756 C117.87684452 252.30250405 114.76909066 254.30013376 111.48852539 256.46899414 C108.11029077 258.5208557 104.72921693 260.56794515 101.34570312 262.61108398 C100.1523982 263.33190528 98.95912004 264.05277091 97.76586914 264.77368164 C97.18831375 265.12241333 96.61075836 265.47114502 96.01570129 265.83044434 C92.29170929 268.08361597 88.59363489 270.37485675 84.90649414 272.68774414 C83.99005127 273.25614014 83.0736084 273.82453613 82.12939453 274.41015625 C80.44155845 275.45783863 78.76052719 276.51659725 77.08789062 277.58837891 C76.34611572 278.045271 75.60434082 278.50216309 74.84008789 278.97290039 C74.20659424 279.3726709 73.57310059 279.77244141 72.92041016 280.18432617 C70.22468461 281.17259091 68.68353894 280.73940817 65.96118164 279.90258789 C63.78320313 278.78613281 63.78320313 278.78613281 61.58227539 277.38305664 C60.754375 276.86179199 59.92647461 276.34052734 59.07348633 275.8034668 C58.19080078 275.23805176 57.30811523 274.67263672 56.39868164 274.09008789 C54.49708509 272.89228625 52.5947235 271.69569842 50.69165039 270.50024414 C49.73049316 269.8945459 48.76933594 269.28884766 47.77905273 268.66479492 C42.82910539 265.56925516 37.81939618 262.57504406 32.79858398 259.59619141 C28.51583848 257.05123119 24.25891365 254.4745297 20.04086304 251.82327271 C18.3320768 250.75111515 16.61864365 249.68681288 14.90356445 248.62475586 C12.68420256 247.24767419 10.47353558 245.8564597 8.27270508 244.44995117 C7.26369141 243.82846191 6.25467773 243.20697266 5.21508789 242.56665039 C4.32120361 242.00413574 3.42731934 241.44162109 2.50634766 240.86206055 C0.0023003 239.64127374 0.0023003 239.64127374 -2.51538086 240.52880859 C-5.27734803 242.03244533 -7.98581516 243.57567493 -10.66772461 245.21899414 C-12.32433105 246.22978027 -12.32433105 246.22978027 -14.0144043 247.26098633 C-15.21007403 247.99563523 -16.40571125 248.73033707 -17.60131836 249.46508789 C-18.83968407 250.2223182 -20.07829486 250.97914784 -21.31713867 251.7355957 C-23.90578796 253.3166146 -26.49335893 254.89937845 -29.08032227 256.4831543 C-32.9917242 258.87596797 -36.91057388 261.2563633 -40.83178711 263.63305664 C-41.46109634 264.01454361 -42.09040558 264.39603058 -42.73878479 264.78907776 C-45.18097402 266.26933826 -47.62332259 267.74933574 -50.06570435 269.22927856 C-51.74977624 270.2500531 -53.43336708 271.27162114 -55.11694336 272.29321289 C-56.14239258 272.91131836 -57.1678418 273.52942383 -58.22436523 274.16625977 C-59.98289565 275.25115466 -61.72275218 276.36766289 -63.43139648 277.52954102 C-64.12168945 277.99811523 -64.81198242 278.46668945 -65.52319336 278.94946289 C-66.09263672 279.35519531 -66.66208008 279.76092773 -67.2487793 280.17895508 C-69.88191901 281.24341581 -71.34767203 280.74987869 -74.03881836 279.90258789 C-76.04949581 278.84495032 -78.01679613 277.70309109 -79.94897461 276.50805664 C-80.50911255 276.1647229 -81.06925049 275.82138916 -81.6463623 275.46765137 C-83.46895517 274.34857709 -85.28504536 273.21938466 -87.10131836 272.09008789 C-88.36831997 271.30974238 -89.63582135 270.53020777 -90.90380859 269.75146484 C-92.81509251 268.577412 -94.72599722 267.40278596 -96.63514709 266.2252655 C-101.03260976 263.51338158 -105.45172066 260.84089984 -109.89428711 258.20336914 C-111.49594149 257.24884784 -113.08844304 256.27816522 -114.65863037 255.27272034 C-118.71479751 252.72062687 -122.46439306 250.66143223 -127.03979492 249.203125 C-133.0143425 246.9846142 -137.57560878 244.39784499 -141.03881836 238.90258789 C-144.78374648 227.59118959 -143.6515161 214.39108788 -143.35107422 202.65795898 C-143.22574487 197.75308414 -143.25725901 192.86420124 -143.3373518 187.95887566 C-143.38372301 184.16040357 -143.35197339 180.36562011 -143.29668617 176.56738663 C-143.27859594 174.76152946 -143.28300137 172.95528984 -143.31123924 171.14956284 C-143.45549654 157.51977859 -143.45549654 157.51977859 -139.44248581 153.17380714 C-135.58893786 150.07639154 -131.37997204 147.83985632 -126.90323162 145.77795124 C-124.51718268 144.65767397 -122.3099576 143.30915046 -120.08569336 141.89868164 C-118.65419922 141.04447912 -117.22190412 140.19161747 -115.78881836 139.34008789 C-105.96869046 133.47654133 -96.19204955 127.54258816 -86.41870117 121.6015625 C-85.8339653 121.2461438 -85.24922943 120.8907251 -84.64677429 120.52453613 C-83.05083235 119.55435168 -81.45509663 118.58382802 -79.859375 117.61328125 C-77.03881836 115.90258789 -77.03881836 115.90258789 -74.37597656 114.70744324 C-71.72078067 113.08589025 -71.72078067 113.08589025 -71.58799744 109.96078491 C-71.70468529 108.15572983 -71.70468529 108.15572983 -71.82373047 106.31420898 C-71.89524965 104.93403492 -71.96669276 103.55385691 -72.03807068 102.17367554 C-72.08517118 101.4418745 -72.13227169 100.71007347 -72.18079948 99.95609665 C-72.41264742 96.05081025 -72.49786911 92.14090692 -72.61108398 88.23071289 C-72.76549386 83.2651767 -72.95991077 78.31110649 -73.30371094 73.35473633 C-75.0434821 47.3396741 -75.0434821 47.3396741 -69.8479805 40.28580093 C-63.4961007 33.64646337 -54.73092744 29.9152552 -46.4057312 26.37927246 C-42.21541103 24.54145205 -38.4617741 22.2935327 -34.63647461 19.80493164 C-31.34696311 17.80915514 -28.057403 15.81346083 -24.76733398 13.81860352 C-23.12474609 12.82183594 -23.12474609 12.82183594 -21.44897461 11.80493164 C-19.875271 10.85529541 -19.875271 10.85529541 -18.26977539 9.88647461 C-15.98246128 8.48200775 -13.72430911 7.05808836 -11.47583008 5.59448242 C-10.88942245 5.21820206 -10.30301483 4.84192169 -9.69883728 4.45423889 C-8.0649194 3.40348455 -6.43917682 2.34004917 -4.81396484 1.27587891 C-2.03881836 -0.09741211 -2.03881836 -0.09741211 0 0 Z " fill="#AF47AB" transform="translate(141.038818359375,0.097412109375)"/>
<path d="M0 0 C0.48872841 10.59523722 0.86070534 21.1877595 1.08805561 31.79201031 C1.19724849 36.71803479 1.34493626 41.63630436 1.58422852 46.55786133 C3.08229575 78.19897219 3.08229575 78.19897219 -1.90237427 85.96316528 C-6.67054841 90.55019263 -12.15931249 92.91740695 -18.35531616 95.03744507 C-22.08008101 96.39310457 -25.18540811 98.3880426 -28.47265625 100.56640625 C-31.85089087 102.61826781 -35.23196471 104.66535726 -38.61547852 106.70849609 C-39.80878345 107.42931739 -41.0020616 108.15018302 -42.1953125 108.87109375 C-42.77286789 109.21982544 -43.35042328 109.56855713 -43.94548035 109.92785645 C-47.66947235 112.18102808 -51.36754675 114.47226886 -55.0546875 116.78515625 C-55.97113037 117.35355225 -56.88757324 117.92194824 -57.83178711 118.50756836 C-59.51962319 119.55525074 -61.20065445 120.61400936 -62.87329102 121.68579102 C-63.61506592 122.14268311 -64.35684082 122.5995752 -65.12109375 123.0703125 C-65.7545874 123.47008301 -66.38808105 123.86985352 -67.04077148 124.28173828 C-69.73649703 125.27000302 -71.2776427 124.83682028 -74 124 C-76.17797852 122.88354492 -76.17797852 122.88354492 -78.37890625 121.48046875 C-79.62075684 120.69857178 -79.62075684 120.69857178 -80.88769531 119.90087891 C-82.21172363 119.05275635 -82.21172363 119.05275635 -83.5625 118.1875 C-85.46409655 116.98969836 -87.36645814 115.79311053 -89.26953125 114.59765625 C-90.23068848 113.99195801 -91.1918457 113.38625977 -92.18212891 112.76220703 C-97.13207625 109.66666727 -102.14178546 106.67245617 -107.16259766 103.69360352 C-111.44534316 101.1486433 -115.70226799 98.57194181 -119.9203186 95.92068481 C-121.62910484 94.84852726 -123.34253799 93.78422499 -125.05761719 92.72216797 C-127.27697908 91.3450863 -129.48764606 89.95387181 -131.68847656 88.54736328 C-132.69749023 87.92587402 -133.70650391 87.30438477 -134.74609375 86.6640625 C-136.08692017 85.82029053 -136.08692017 85.82029053 -137.45483398 84.95947266 C-139.95888134 83.73868585 -139.95888134 83.73868585 -142.4765625 84.6262207 C-145.23852967 86.12985744 -147.9469968 87.67308704 -150.62890625 89.31640625 C-152.2855127 90.32719238 -152.2855127 90.32719238 -153.97558594 91.35839844 C-155.17125568 92.09304734 -156.36689289 92.82774918 -157.5625 93.5625 C-158.80086571 94.31973031 -160.0394765 95.07655995 -161.27832031 95.83300781 C-163.8669696 97.41402671 -166.45454057 98.99679056 -169.04150391 100.58056641 C-172.95290584 102.97338008 -176.87175552 105.35377541 -180.79296875 107.73046875 C-181.7369326 108.3026992 -181.7369326 108.3026992 -182.69996643 108.88648987 C-185.14215566 110.36675037 -187.58450423 111.84674785 -190.02688599 113.32669067 C-191.71095788 114.34746521 -193.39454872 115.36903324 -195.078125 116.390625 C-196.10357422 117.00873047 -197.12902344 117.62683594 -198.18554688 118.26367188 C-199.94407729 119.34856677 -201.68393382 120.465075 -203.39257812 121.62695312 C-204.08287109 122.09552734 -204.77316406 122.56410156 -205.484375 123.046875 C-206.05381836 123.45260742 -206.62326172 123.85833984 -207.20996094 124.27636719 C-209.84310065 125.34082792 -211.30885367 124.8472908 -214 124 C-216.01067745 122.94236243 -217.97797777 121.8005032 -219.91015625 120.60546875 C-220.47029419 120.26213501 -221.03043213 119.91880127 -221.60754395 119.56506348 C-223.43013681 118.4459892 -225.246227 117.31679677 -227.0625 116.1875 C-228.32950161 115.40715449 -229.59700299 114.62761987 -230.86499023 113.84887695 C-232.77627415 112.67482411 -234.68717886 111.50019807 -236.59632874 110.32267761 C-240.99379141 107.61079369 -245.4129023 104.93831195 -249.85546875 102.30078125 C-251.45646363 101.34665299 -253.04827617 100.37630302 -254.61761475 99.37095642 C-258.68573545 96.81058871 -262.44750508 94.75183169 -267.03613281 93.28735352 C-272.99720605 91.07254288 -277.60000079 88.53199493 -281 83 C-284.68922592 70.89188758 -282.85799637 56.61620647 -282.30462646 44.16394043 C-282.10905297 39.29834911 -282.02323849 34.43090149 -281.92773438 29.5625 C-281.72489761 20.03674322 -281.40137249 10.5193157 -281 1 C-277.7235455 2.28517952 -274.71111035 3.64353135 -271.68359375 5.44140625 C-270.43437134 6.18064331 -270.43437134 6.18064331 -269.15991211 6.93481445 C-267.81231812 7.7405188 -267.81231812 7.7405188 -266.4375 8.5625 C-265.4894751 9.12606201 -264.5414502 9.68962402 -263.56469727 10.27026367 C-253.21399361 16.43903313 -242.91429961 22.69293363 -232.62109375 28.95703125 C-230.98696533 29.94437256 -230.98696533 29.94437256 -229.31982422 30.95166016 C-227.0088565 32.37753302 -224.74016627 33.82326303 -222.48095703 35.32568359 C-221.61447289 35.89037605 -221.61447289 35.89037605 -220.73048401 36.46647644 C-219.13171462 37.51112665 -217.54409933 38.57279046 -215.95727539 39.63549805 C-212.37275926 41.28941208 -210.74427758 41.10440429 -207 40 C-204.91037065 39.09978679 -204.91037065 39.09978679 -203.0234375 37.875 C-202.28448242 37.42431152 -201.54552734 36.97362305 -200.78417969 36.50927734 C-199.59163574 35.76218506 -199.59163574 35.76218506 -198.375 35 C-196.59638381 33.90880585 -194.81773611 32.81766306 -193.0390625 31.7265625 C-192.07645508 31.13133789 -191.11384766 30.53611328 -190.12207031 29.92285156 C-186.76610631 27.85594724 -183.39684051 25.81168323 -180.0234375 23.7734375 C-178.81542092 23.04282049 -177.60741316 22.31218889 -176.39941406 21.58154297 C-174.57544953 20.4785345 -172.75132321 19.375799 -170.92663574 18.27398682 C-165.1914428 14.80893413 -159.46481519 11.34133608 -153.8671875 7.65625 C-153.1340332 7.17752441 -152.40087891 6.69879883 -151.64550781 6.20556641 C-150.35098072 5.35308058 -149.06543319 4.48670177 -147.79199219 3.60302734 C-145.08696397 1.8254597 -143.46301053 0.96836524 -140.19140625 1.19189453 C-136.57990746 2.10637288 -134.01272052 3.49398726 -130.8359375 5.4375 C-130.25401642 5.78976654 -129.67209534 6.14203308 -129.07254028 6.50497437 C-127.167717 7.66099225 -125.27145474 8.83031359 -123.375 10 C-122.04806394 10.80898841 -120.72058185 11.61708182 -119.39257812 12.42431641 C-116.64118126 14.09862181 -113.8931121 15.77820386 -111.14746094 17.46191406 C-107.11043113 19.93576425 -103.06089273 22.38849695 -99.0078125 24.8359375 C-89.32983585 30.68518835 -89.32983585 30.68518835 -84.65625 33.5234375 C-83.70556641 34.10013184 -82.75488281 34.67682617 -81.77539062 35.27099609 C-79 37 -79 37 -75.95898438 39.21728516 C-72.79564494 41.12311886 -71.58885108 41.64489655 -68 41 C-65.2088979 39.72348654 -65.2088979 39.72348654 -62.37109375 37.87890625 C-61.26693115 37.19876465 -60.16276855 36.51862305 -59.02514648 35.81787109 C-57.82917783 35.06621833 -56.63329791 34.31442437 -55.4375 33.5625 C-54.19740983 32.79393161 -52.95659355 32.02653369 -51.71508789 31.26025391 C-49.1223948 29.65887183 -46.53294184 28.05242104 -43.9453125 26.44287109 C-40.08375872 24.04585953 -36.20196055 21.68342802 -32.3125 19.33203125 C-31.69029068 18.95577103 -31.06808136 18.5795108 -30.42701721 18.19184875 C-28.59737149 17.08591217 -26.76744642 15.98043893 -24.9375 14.875 C-17.57874944 10.42832642 -10.26420163 5.93162705 -3.04907227 1.25439453 C-1 0 -1 0 0 0 Z " fill="#8F3C97" transform="translate(281,156)"/>
<path d="M0 0 C2.66422965 1.01976111 4.97795789 2.34575584 7.42822266 3.80981445 C9.02126221 4.75727539 9.02126221 4.75727539 10.64648438 5.72387695 C11.8030084 6.41900437 12.95941816 7.11432192 14.11572266 7.80981445 C15.31491176 8.52628243 16.51429664 9.2424228 17.71386719 9.95825195 C35.26019017 20.44446966 52.71594522 31.08250752 70.11572266 41.80981445 C67.13252424 45.03508625 64.06479084 47.24037354 60.30322266 49.49731445 C59.46082535 50.00601578 59.46082535 50.00601578 58.60140991 50.5249939 C56.77609916 51.62544612 54.9460029 52.71765133 53.11572266 53.80981445 C51.84408765 54.57443021 50.57276855 55.33957159 49.30175781 56.10522461 C46.1510808 58.00140553 42.99657924 59.89110237 39.8404541 61.77819824 C37.37596427 63.25228725 34.91380396 64.73024863 32.45166016 66.20825195 C30.00735199 67.67521276 27.56276995 69.14169277 25.11669922 70.60571289 C16.74833547 75.61693949 8.42967847 80.70898166 0.11572266 85.80981445 C-7.48990129 81.73785475 -14.93894133 77.45920412 -22.32177734 72.99731445 C-23.90804932 72.04139404 -23.90804932 72.04139404 -25.52636719 71.06616211 C-27.78915637 69.70148858 -30.0513168 68.33583286 -32.3125 66.96850586 C-34.75875216 65.48938648 -37.20643588 64.01267683 -39.65527344 62.5378418 C-42.82665092 60.62784007 -45.99616402 58.71478094 -49.16433716 56.79946899 C-50.38132189 56.06420529 -51.59882019 55.32979084 -52.81686401 54.59628296 C-59.00360347 50.86874488 -65.08957753 47.12644591 -70.88427734 42.80981445 C-68.30267044 39.90947005 -65.3398429 38.14934555 -62.01318359 36.17700195 C-61.13407066 35.65291496 -61.13407066 35.65291496 -60.23719788 35.11824036 C-58.97065915 34.3637951 -57.70292921 33.61134678 -56.43414307 32.86068726 C-53.74050231 31.26692982 -51.05264689 29.66353569 -48.36450195 28.06053162 C-46.97074164 27.22946048 -45.57669508 26.39886921 -44.18237305 25.56874084 C-36.93391081 21.25121364 -29.71894643 16.87921536 -22.50927734 12.49731445 C-21.34726269 11.79205159 -20.18523504 11.08681013 -19.02319336 10.3815918 C-17.9383667 9.72239746 -16.85354004 9.06320312 -15.73583984 8.3840332 C-14.72424805 7.77221191 -13.71265625 7.16039062 -12.67041016 6.5300293 C-10.91587817 5.4467457 -9.17777731 4.33591465 -7.46533203 3.18725586 C-2.35344972 -0.23754047 -2.35344972 -0.23754047 0 0 Z " fill="#F386D1" transform="translate(140.88427734375,0.190185546875)"/>
<path d="M0 0 C0.85779053 0.50958252 1.71558105 1.01916504 2.59936523 1.54418945 C4.05947021 2.39762939 4.05947021 2.39762939 5.54907227 3.26831055 C6.57500488 3.8917334 7.6009375 4.51515625 8.65795898 5.1574707 C9.66971191 5.75897949 10.68146484 6.36048828 11.72387695 6.98022461 C15.02687329 8.95669583 18.31292985 10.95980717 21.59545898 12.9699707 C23.42290576 14.08593975 25.25076658 15.20122844 27.07865906 16.31646729 C28.33919831 17.08564034 29.59954246 17.85513323 30.85969543 18.62493896 C35.43030221 21.41523599 40.01411397 24.18296941 44.60327148 26.94262695 C46.52232435 28.09893672 48.44115125 29.25562045 50.3598938 30.41244507 C51.59362111 31.15512596 52.8282122 31.89637399 54.06369019 32.63613892 C55.78628961 33.66794156 57.50540779 34.70554946 59.22436523 35.7434082 C60.69305054 36.62585205 60.69305054 36.62585205 62.19140625 37.52612305 C64.31456853 38.93035648 65.96154629 40.27653342 67.65795898 42.1574707 C60.51814617 47.38914122 53.08137154 51.96534848 45.4230957 56.37991333 C42.20106521 58.23808478 38.98799436 60.11160453 35.77514648 61.9855957 C35.14960876 62.35024429 34.52407104 62.71489288 33.87957764 63.09059143 C29.08913618 65.88974038 24.35041784 68.75992823 19.65795898 71.7199707 C19.04895752 72.10306396 18.43995605 72.48615723 17.8125 72.88085938 C15.47762903 74.35542987 13.14917659 75.83888213 10.83227539 77.34155273 C9.05041004 78.49719136 7.26085083 79.64010519 5.47045898 80.7824707 C3.96418945 81.76086914 3.96418945 81.76086914 2.42749023 82.7590332 C-0.65108163 84.3135166 -1.96298617 84.78208387 -5.34204102 84.1574707 C-7.8217071 82.82476075 -10.07489274 81.46493546 -12.40454102 79.9074707 C-13.84736038 78.97463633 -15.29142676 78.0437286 -16.73657227 77.11450195 C-17.49276855 76.62546387 -18.24896484 76.13642578 -19.02807617 75.63256836 C-22.83455472 73.20602865 -26.71296442 70.9030055 -30.59204102 68.5949707 C-38.58007577 63.82354067 -46.54585958 59.01635887 -54.49987793 54.18850708 C-55.76379382 53.42137259 -57.02787113 52.65450401 -58.29211426 51.88790894 C-60.07090852 50.80920391 -61.84914449 49.7295849 -63.62719727 48.6496582 C-64.65723877 48.02430176 -65.68728027 47.39894531 -66.74853516 46.75463867 C-68.63609386 45.59221666 -70.49757059 44.38711766 -72.34204102 43.1574707 C-70.98576856 39.08865333 -69.15668926 38.60718796 -65.46313477 36.49731445 C-64.8642041 36.15134216 -64.26527344 35.80536987 -63.64819336 35.44891357 C-62.36370889 34.70802737 -61.07690698 33.97114734 -59.78805542 33.23788452 C-56.43125041 31.32774695 -53.09103163 29.38895328 -49.74829102 27.4543457 C-48.76607826 26.88758369 -48.76607826 26.88758369 -47.76402283 26.30937195 C-43.04254879 23.58040876 -38.38172038 20.77138004 -33.77954102 17.8449707 C-27.76682495 14.03124715 -21.69620605 10.3232442 -15.59204102 6.6574707 C-14.73280029 6.14015381 -13.87355957 5.62283691 -12.98828125 5.08984375 C-11.77893921 4.36535034 -11.77893921 4.36535034 -10.54516602 3.6262207 C-9.83005859 3.19760742 -9.11495117 2.76899414 -8.37817383 2.32739258 C-7.37028809 1.74828125 -7.37028809 1.74828125 -6.34204102 1.1574707 C-5.69726807 0.72732666 -5.05249512 0.29718262 -4.38818359 -0.14599609 C-2.34204102 -0.8425293 -2.34204102 -0.8425293 0 0 Z " fill="#F386D1" transform="translate(213.342041015625,113.842529296875)"/>
<path d="M0 0 C0.89734863 0.59127686 1.79469727 1.18255371 2.71923828 1.79174805 C4.85065911 3.05581632 6.98356393 4.31738456 9.11767578 5.5769043 C11.44878082 6.993623 13.77096833 8.42472868 16.09423828 9.85424805 C17.95874019 10.99525784 19.82410708 12.13484463 21.6894989 13.2743988 C22.93239005 14.03382786 24.17499642 14.79372319 25.41731262 15.55409241 C30.81065552 18.8540453 36.22960253 22.11019227 41.65673828 25.35424805 C43.23372067 26.30059693 44.81055039 27.24720029 46.38720703 28.1940918 C49.19771561 29.88164191 52.01341395 31.56001548 54.83251953 33.2331543 C56.04498895 33.96063595 57.257245 34.6884734 58.46923828 35.41674805 C59.49533203 36.02776367 60.52142578 36.6387793 61.57861328 37.26831055 C62.28501953 37.77104492 62.99142578 38.2737793 63.71923828 38.79174805 C63.71923828 39.45174805 63.71923828 40.11174805 63.71923828 40.79174805 C61.46630859 42.38891602 61.46630859 42.38891602 58.29736328 44.28393555 C57.73019592 44.62585434 57.16302856 44.96777313 56.57867432 45.3200531 C54.71293392 46.44256439 52.84119028 47.55463191 50.96923828 48.66674805 C49.67782527 49.4410694 48.38681165 50.21605722 47.09619141 50.99169922 C43.88968845 52.91679272 40.6785364 54.83397318 37.46606445 56.74908447 C34.17519154 58.71337455 30.89264937 60.69150399 27.609375 62.66845703 C26.02446705 63.62053504 24.43756747 64.56930596 22.84863281 65.51464844 C18.61652759 68.03329925 14.42220501 70.5991048 10.25830078 73.22924805 C8.89995117 74.07555786 8.89995117 74.07555786 7.51416016 74.93896484 C5.78025243 76.02043747 4.05440291 77.1149785 2.33837891 78.22460938 C-0.9638937 80.26872704 -3.33637195 81.73210238 -7.24951172 81.97924805 C-11.82457423 80.18695552 -15.78932759 77.6413504 -19.90576172 74.97924805 C-21.79821055 73.78139974 -23.69145843 72.58481303 -25.58544922 71.3894043 C-26.54032227 70.78370605 -27.49519531 70.17800781 -28.47900391 69.55395508 C-32.6259222 66.94568946 -36.82326858 64.42573678 -41.03076172 61.91674805 C-41.82337402 61.44293701 -42.61598633 60.96912598 -43.43261719 60.48095703 C-45.11220471 59.47701799 -46.79206455 58.47353443 -48.47216797 57.47045898 C-53.42331408 54.51113347 -58.36806 51.54113201 -63.31359863 48.57244873 C-66.04722098 46.93163404 -68.7811935 45.29140303 -71.51513672 43.65112305 C-73.10367839 42.69799805 -74.69222005 41.74487305 -76.28076172 40.79174805 C-74.92446182 36.72284835 -72.28811423 35.72040049 -68.74560547 33.6940918 C-68.07995071 33.30363678 -67.41429596 32.91318176 -66.72846985 32.51089478 C-64.56289701 31.24246828 -62.39057609 29.98608708 -60.21826172 28.72924805 C-57.99257926 27.42823305 -55.76887737 26.1238821 -53.54537964 24.81913757 C-52.08981688 23.96509589 -50.63370413 23.11199086 -49.17703247 22.25984192 C-44.243296 19.37075536 -39.35969932 16.4157958 -34.53076172 13.35424805 C-33.9485083 12.99314941 -33.36625488 12.63205078 -32.76635742 12.26000977 C-29.19676884 10.04146463 -25.7127786 7.72436263 -22.24169922 5.35424805 C-20.46356539 4.18680117 -18.68492441 3.02012636 -16.90576172 1.85424805 C-16.09655273 1.27811768 -15.28734375 0.7019873 -14.45361328 0.10839844 C-8.67056073 -3.60699368 -5.8488907 -3.55464033 0 0 Z " fill="#F386D1" transform="translate(76.28076171875,116.208251953125)"/>
<path d="M0 0 C0.48872841 10.59523722 0.86070534 21.1877595 1.08805561 31.79201031 C1.19724849 36.71803479 1.34493626 41.63630436 1.58422852 46.55786133 C3.08229575 78.19897219 3.08229575 78.19897219 -1.90237427 85.96316528 C-6.67054841 90.55019263 -12.15931249 92.91740695 -18.35531616 95.03744507 C-22.08010667 96.39311391 -25.18534477 98.38810986 -28.47265625 100.56640625 C-30.66856705 101.8995974 -32.86517224 103.23164554 -35.0625 104.5625 C-36.24389865 105.27856087 -37.42529509 105.9946254 -38.60668945 106.71069336 C-42.06996557 108.8090505 -45.53492994 110.90460663 -49 113 C-50.04961914 113.63550781 -51.09923828 114.27101563 -52.18066406 114.92578125 C-55.01467421 116.64069248 -57.85061462 118.35235041 -60.6875 120.0625 C-61.52482666 120.56918213 -62.36215332 121.07586426 -63.22485352 121.59790039 C-63.97951904 122.05156982 -64.73418457 122.50523926 -65.51171875 122.97265625 C-66.16615967 123.36718994 -66.82060059 123.76172363 -67.49487305 124.16821289 C-69 125 -69 125 -70 125 C-70.33 97.61 -70.66 70.22 -71 42 C-67.37 40.02 -63.74 38.04 -60 36 C-57.00671838 34.24802677 -54.02847438 32.48397319 -51.0625 30.6875 C-50.23693604 30.18968018 -49.41137207 29.69186035 -48.56079102 29.17895508 C-45.7054785 27.45545939 -42.85270416 25.72780934 -40 24 C-38.84348339 23.30068381 -37.68690538 22.60146917 -36.53027344 21.90234375 C-33.44472557 20.03707316 -30.36026624 18.17001417 -27.27658081 16.30166626 C-26.06950799 15.57038801 -24.86225869 14.83940097 -23.65481567 14.10873413 C-16.71978424 9.91038911 -9.833933 5.65391628 -3.03149414 1.2434082 C-1 0 -1 0 0 0 Z " fill="#AF47AB" transform="translate(281,156)"/>
<path d="M0 0 C3.2764545 1.28517952 6.28888965 2.64353135 9.31640625 4.44140625 C10.14906006 4.93415039 10.98171387 5.42689453 11.83959961 5.93457031 C12.73815674 6.47178711 13.63671387 7.00900391 14.5625 7.5625 C15.5119751 8.12678711 16.4614502 8.69107422 17.43969727 9.27246094 C40.64067618 23.09717801 40.64067618 23.09717801 51.31111145 29.83392334 C53.77749871 31.34407433 56.23449487 32.57473954 58.89541626 33.7039032 C68.76239753 38.1685533 68.76239753 38.1685533 70.83275795 42.90522385 C72.12364661 48.54978215 71.72118511 54.29411509 71.46484375 60.03515625 C71.43683086 61.88308566 71.41549584 63.73112726 71.40052795 65.57920837 C71.34351862 70.42053285 71.19646933 75.25499697 71.02996826 80.09362793 C70.87590925 85.03998984 70.8078883 89.98747233 70.73242188 94.93554688 C70.5720288 104.62669645 70.31639464 114.31277579 70 124 C59.42765138 118.80167125 59.42765138 118.80167125 55.1328125 116.08984375 C54.32054199 115.58122803 53.50827148 115.0726123 52.67138672 114.54858398 C51.8310791 114.01692627 50.99077148 113.48526855 50.125 112.9375 C48.27680531 111.78002976 46.42782743 110.62380927 44.578125 109.46875 C43.64935547 108.88867188 42.72058594 108.30859375 41.76367188 107.7109375 C36.78660913 104.62973116 31.75532204 101.63879806 26.71533203 98.66186523 C25.15069022 97.73143086 23.61384192 96.75344342 22.09985352 95.74267578 C19.39423723 94.2216323 17.11982488 93.3653342 14.19506836 92.42529297 C8.16886219 90.12700421 3.44620709 87.62169078 0 82 C-3.68315159 69.88716394 -1.85814395 55.6195274 -1.30462646 43.16394043 C-1.10905297 38.29834911 -1.02323849 33.43090149 -0.92773438 28.5625 C-0.72489761 19.03674322 -0.40137249 9.5193157 0 0 Z " fill="#6F3284" transform="translate(0,157)"/>
<path d="M0 0 C7.92 0 15.84 0 24 0 C24 12.87 24 25.74 24 39 C38.52 39 53.04 39 68 39 C68 26.13 68 13.26 68 0 C75.92 0 83.84 0 92 0 C92 33 92 66 92 100 C84.08 100 76.16 100 68 100 C68 86.8 68 73.6 68 60 C53.48 60 38.96 60 24 60 C24 73.2 24 86.4 24 100 C16.08 100 8.16 100 0 100 C0 67 0 34 0 0 Z " fill="#FFFFFF" transform="translate(427,23)"/>
<path d="M0 0 C25.08 0 50.16 0 76 0 C76 6.6 76 13.2 76 20 C58.84 20 41.68 20 24 20 C24 26.6 24 33.2 24 40 C39.18 40 54.36 40 70 40 C70 46.27 70 52.54 70 59 C54.82 59 39.64 59 24 59 C24 66.26 24 73.52 24 81 C41.82 81 59.64 81 78 81 C78 87.27 78 93.54 78 100 C52.26 100 26.52 100 0 100 C0 67 0 34 0 0 Z " fill="#FFFFFF" transform="translate(541,23)"/>
<path d="M0 0 C7.92 0 15.84 0 24 0 C29.40535446 11.52137305 34.69779067 23.0899554 39.9375 34.6875 C40.34475311 35.58876617 40.75200623 36.49003235 41.17160034 37.41860962 C44.1190357 43.94365434 47.06059801 50.47133315 50 57 C50.60140808 58.33490479 50.60140808 58.33490479 51.21496582 59.69677734 C53.48839902 64.74409234 55.75622269 69.79385684 58.01541138 74.8475647 C58.70741441 76.39398809 59.40097043 77.93971758 60.09616089 79.48471069 C61.05958335 81.6271116 62.01690203 83.77213812 62.97265625 85.91796875 C63.78101929 87.72430786 63.78101929 87.72430786 64.60571289 89.56713867 C66 93 66 93 68 100 C59.75 100 51.5 100 43 100 C35 82.7826087 35 82.7826087 35 79 C19.82 79 4.64 79 -11 79 C-11.33 80.65 -11.66 82.3 -12 84 C-12.96061204 86.60893497 -13.94959023 89.17847798 -15 91.75 C-15.40992188 92.77673828 -15.40992188 92.77673828 -15.828125 93.82421875 C-17.86399502 98.86399502 -17.86399502 98.86399502 -19 100 C-20.85369611 100.08737645 -22.71067541 100.10698153 -24.56640625 100.09765625 C-25.69111328 100.09443359 -26.81582031 100.09121094 -27.97460938 100.08789062 C-29.15861328 100.07951172 -30.34261719 100.07113281 -31.5625 100.0625 C-32.75037109 100.05798828 -33.93824219 100.05347656 -35.16210938 100.04882812 C-38.10812226 100.03699675 -41.05403681 100.02051287 -44 100 C-39.39769353 88.57104625 -34.49943031 77.3088887 -29.37734985 66.10394287 C-22.0576197 50.08498124 -14.87660355 34.0082403 -7.8125 17.875 C-7.21627335 16.51338745 -7.21627335 16.51338745 -6.60800171 15.12426758 C-4.40200535 10.0842884 -2.20046456 5.04240266 0 0 Z M12 26 C8.04813394 33.52077874 4.78974612 41.22122164 1.6875 49.125 C0.140625 53.04375 -1.40625 56.9625 -3 61 C6.9 61 16.8 61 27 61 C24.64875 55.121875 24.64875 55.121875 22.25 49.125 C19.16666667 41.41666667 16.08333333 33.70833333 13 26 C12.67 26 12.34 26 12 26 Z " fill="#FFFFFF" transform="translate(842,150)"/>
<path d="M0 0 C7.92 0 15.84 0 24 0 C29.40535446 11.52137305 34.69779067 23.0899554 39.9375 34.6875 C40.34475311 35.58876617 40.75200623 36.49003235 41.17160034 37.41860962 C44.1190357 43.94365434 47.06059801 50.47133315 50 57 C50.60140808 58.33490479 50.60140808 58.33490479 51.21496582 59.69677734 C53.48839902 64.74409234 55.75622269 69.79385684 58.01541138 74.8475647 C58.70741441 76.39398809 59.40097043 77.93971758 60.09616089 79.48471069 C61.05958335 81.6271116 62.01690203 83.77213812 62.97265625 85.91796875 C63.78101929 87.72430786 63.78101929 87.72430786 64.60571289 89.56713867 C66 93 66 93 68 100 C59.75 100 51.5 100 43 100 C35 82.7826087 35 82.7826087 35 79 C19.82 79 4.64 79 -11 79 C-11.33 80.65 -11.66 82.3 -12 84 C-12.96061204 86.60893497 -13.94959023 89.17847798 -15 91.75 C-15.40992188 92.77673828 -15.40992188 92.77673828 -15.828125 93.82421875 C-17.86399502 98.86399502 -17.86399502 98.86399502 -19 100 C-20.85369611 100.08737645 -22.71067541 100.10698153 -24.56640625 100.09765625 C-25.69111328 100.09443359 -26.81582031 100.09121094 -27.97460938 100.08789062 C-29.15861328 100.07951172 -30.34261719 100.07113281 -31.5625 100.0625 C-32.75037109 100.05798828 -33.93824219 100.05347656 -35.16210938 100.04882812 C-38.10812226 100.03699675 -41.05403681 100.02051287 -44 100 C-39.39769353 88.57104625 -34.49943031 77.3088887 -29.37734985 66.10394287 C-22.0576197 50.08498124 -14.87660355 34.0082403 -7.8125 17.875 C-7.21627335 16.51338745 -7.21627335 16.51338745 -6.60800171 15.12426758 C-4.40200535 10.0842884 -2.20046456 5.04240266 0 0 Z M12 26 C8.04813394 33.52077874 4.78974612 41.22122164 1.6875 49.125 C0.140625 53.04375 -1.40625 56.9625 -3 61 C6.9 61 16.8 61 27 61 C24.64875 55.121875 24.64875 55.121875 22.25 49.125 C19.16666667 41.41666667 16.08333333 33.70833333 13 26 C12.67 26 12.34 26 12 26 Z " fill="#FFFFFF" transform="translate(370,150)"/>
<path d="M0 0 C1.00426025 0.00161133 2.00852051 0.00322266 3.04321289 0.00488281 C14.7652981 0.19577492 25.70073945 2.40355634 35.9375 8.375 C33.87985079 14.82853615 31.51366518 21.1111263 28.9375 27.375 C25.06327536 26.11849471 21.24988467 24.74279438 17.4375 23.3125 C7.8146766 19.83328025 -2.48083196 18.6548352 -12.2421875 22.3984375 C-15.06718144 23.91399219 -16.07687215 25.34771446 -17.0625 28.375 C-17.6330376 31.45726354 -17.6330376 31.45726354 -16.0625 34.375 C-9.15817933 39.06917625 -1.06016128 40.93589187 6.9375 42.875 C19.26294741 45.86342054 29.34342346 48.91623127 37.1875 59.375 C40.78619076 65.54418416 40.71047275 72.76035271 39.546875 79.70703125 C37.46148843 87.34008081 32.68207675 93.02270212 26.02734375 97.203125 C9.6122143 105.75310393 -9.82786669 105.61459633 -27.43359375 100.5859375 C-33.86753688 98.43898124 -39.24169558 96.19580442 -44.0625 91.375 C-41.4225 85.435 -38.7825 79.495 -36.0625 73.375 C-32.7521875 75.0146875 -32.7521875 75.0146875 -29.375 76.6875 C-17.69677298 82.23883729 -4.85207905 85.8793603 7.9375 82.125 C10.42965697 81.16029408 11.98172088 80.3385828 14.0625 78.625 C15.45997283 75.03149843 15.17171658 73.01269097 13.9375 69.375 C6.50692338 64.82277547 -1.76269424 63.21525699 -10.15625 61.1953125 C-21.60857928 58.29190508 -32.21869501 54.49727445 -39.0625 44.375 C-42.49611234 38.5615391 -42.63874289 31.21500851 -41.4375 24.6875 C-39.09777627 16.01037887 -33.68335869 9.86935796 -26.15234375 5.1875 C-17.8890707 0.71908992 -9.25609507 -0.01556039 0 0 Z " fill="#FFFFFF" transform="translate(1041.0625,148.625)"/>
<path d="M0 0 C1.00426025 0.00161133 2.00852051 0.00322266 3.04321289 0.00488281 C14.7652981 0.19577492 25.70073945 2.40355634 35.9375 8.375 C33.87985079 14.82853615 31.51366518 21.1111263 28.9375 27.375 C25.06327536 26.11849471 21.24988467 24.74279438 17.4375 23.3125 C7.8146766 19.83328025 -2.48083196 18.6548352 -12.2421875 22.3984375 C-15.06718144 23.91399219 -16.07687215 25.34771446 -17.0625 28.375 C-17.6330376 31.45726354 -17.6330376 31.45726354 -16.0625 34.375 C-9.15817933 39.06917625 -1.06016128 40.93589187 6.9375 42.875 C19.26294741 45.86342054 29.34342346 48.91623127 37.1875 59.375 C40.78619076 65.54418416 40.71047275 72.76035271 39.546875 79.70703125 C37.46148843 87.34008081 32.68207675 93.02270212 26.02734375 97.203125 C9.6122143 105.75310393 -9.82786669 105.61459633 -27.43359375 100.5859375 C-33.86753688 98.43898124 -39.24169558 96.19580442 -44.0625 91.375 C-41.4225 85.435 -38.7825 79.495 -36.0625 73.375 C-32.7521875 75.0146875 -32.7521875 75.0146875 -29.375 76.6875 C-17.69677298 82.23883729 -4.85207905 85.8793603 7.9375 82.125 C10.42965697 81.16029408 11.98172088 80.3385828 14.0625 78.625 C15.45997283 75.03149843 15.17171658 73.01269097 13.9375 69.375 C6.50692338 64.82277547 -1.76269424 63.21525699 -10.15625 61.1953125 C-21.60857928 58.29190508 -32.21869501 54.49727445 -39.0625 44.375 C-42.49611234 38.5615391 -42.63874289 31.21500851 -41.4375 24.6875 C-39.09777627 16.01037887 -33.68335869 9.86935796 -26.15234375 5.1875 C-17.8890707 0.71908992 -9.25609507 -0.01556039 0 0 Z " fill="#FFFFFF" transform="translate(711.0625,148.625)"/>
<path d="M0 0 C1.00426025 0.00161133 2.00852051 0.00322266 3.04321289 0.00488281 C14.7652981 0.19577492 25.70073945 2.40355634 35.9375 8.375 C33.87985079 14.82853615 31.51366518 21.1111263 28.9375 27.375 C25.06327536 26.11849471 21.24988467 24.74279438 17.4375 23.3125 C7.8146766 19.83328025 -2.48083196 18.6548352 -12.2421875 22.3984375 C-15.06718144 23.91399219 -16.07687215 25.34771446 -17.0625 28.375 C-17.6330376 31.45726354 -17.6330376 31.45726354 -16.0625 34.375 C-9.15817933 39.06917625 -1.06016128 40.93589187 6.9375 42.875 C19.26294741 45.86342054 29.34342346 48.91623127 37.1875 59.375 C40.78619076 65.54418416 40.71047275 72.76035271 39.546875 79.70703125 C37.46148843 87.34008081 32.68207675 93.02270212 26.02734375 97.203125 C9.6122143 105.75310393 -9.82786669 105.61459633 -27.43359375 100.5859375 C-33.86753688 98.43898124 -39.24169558 96.19580442 -44.0625 91.375 C-41.4225 85.435 -38.7825 79.495 -36.0625 73.375 C-32.7521875 75.0146875 -32.7521875 75.0146875 -29.375 76.6875 C-17.69677298 82.23883729 -4.85207905 85.8793603 7.9375 82.125 C10.42965697 81.16029408 11.98172088 80.3385828 14.0625 78.625 C15.45997283 75.03149843 15.17171658 73.01269097 13.9375 69.375 C6.50692338 64.82277547 -1.76269424 63.21525699 -10.15625 61.1953125 C-21.60857928 58.29190508 -32.21869501 54.49727445 -39.0625 44.375 C-42.49611234 38.5615391 -42.63874289 31.21500851 -41.4375 24.6875 C-39.09777627 16.01037887 -33.68335869 9.86935796 -26.15234375 5.1875 C-17.8890707 0.71908992 -9.25609507 -0.01556039 0 0 Z " fill="#FFFFFF" transform="translate(574.0625,148.625)"/>
<path d="M0 0 C1.00426025 0.00161133 2.00852051 0.00322266 3.04321289 0.00488281 C14.7652981 0.19577492 25.70073945 2.40355634 35.9375 8.375 C33.87985079 14.82853615 31.51366518 21.1111263 28.9375 27.375 C25.06327536 26.11849471 21.24988467 24.74279438 17.4375 23.3125 C7.8146766 19.83328025 -2.48083196 18.6548352 -12.2421875 22.3984375 C-15.06718144 23.91399219 -16.07687215 25.34771446 -17.0625 28.375 C-17.6330376 31.45726354 -17.6330376 31.45726354 -16.0625 34.375 C-9.15817933 39.06917625 -1.06016128 40.93589187 6.9375 42.875 C19.26294741 45.86342054 29.34342346 48.91623127 37.1875 59.375 C40.78619076 65.54418416 40.71047275 72.76035271 39.546875 79.70703125 C37.46148843 87.34008081 32.68207675 93.02270212 26.02734375 97.203125 C9.6122143 105.75310393 -9.82786669 105.61459633 -27.43359375 100.5859375 C-33.86753688 98.43898124 -39.24169558 96.19580442 -44.0625 91.375 C-41.4225 85.435 -38.7825 79.495 -36.0625 73.375 C-32.7521875 75.0146875 -32.7521875 75.0146875 -29.375 76.6875 C-17.69677298 82.23883729 -4.85207905 85.8793603 7.9375 82.125 C10.42965697 81.16029408 11.98172088 80.3385828 14.0625 78.625 C15.45997283 75.03149843 15.17171658 73.01269097 13.9375 69.375 C6.50692338 64.82277547 -1.76269424 63.21525699 -10.15625 61.1953125 C-21.60857928 58.29190508 -32.21869501 54.49727445 -39.0625 44.375 C-42.49611234 38.5615391 -42.63874289 31.21500851 -41.4375 24.6875 C-39.09777627 16.01037887 -33.68335869 9.86935796 -26.15234375 5.1875 C-17.8890707 0.71908992 -9.25609507 -0.01556039 0 0 Z " fill="#FFFFFF" transform="translate(484.0625,148.625)"/>
<path d="M0 0 C8.28011771 4.73149583 16.50537258 9.45277967 24.625 14.4375 C26.59361773 15.64084141 28.5623746 16.84395523 30.53125 18.046875 C31.56507812 18.67916016 32.59890625 19.31144531 33.6640625 19.96289062 C39.18726403 23.33566533 44.71968868 26.69323205 50.25213623 30.05081177 C52.09225337 31.16762524 53.93213883 32.28481949 55.77197266 33.40209961 C56.91307683 34.09490433 58.05418969 34.78769473 59.1953125 35.48046875 C60.19578613 36.08785889 61.19625977 36.69524902 62.22705078 37.32104492 C64.91907476 39.0285888 64.91907476 39.0285888 67.63783264 40.18203735 C70 42 70 42 70.60127258 45.01823425 C70.59016953 46.2551149 70.57906647 47.49199554 70.56762695 48.76635742 C70.56835709 49.44954544 70.56908722 50.13273346 70.56983948 50.83662415 C70.56635724 53.0937149 70.52747226 55.34873889 70.48828125 57.60546875 C70.47895523 59.17058688 70.47183812 60.7357196 70.46684265 62.30085754 C70.44775576 66.4194268 70.39864169 70.53711374 70.34332275 74.65533447 C70.29216595 78.85799218 70.26933632 83.06079253 70.24414062 87.26367188 C70.19052343 95.5095194 70.10519158 103.75464993 70 112 C66.80950027 110.74825876 63.8777433 109.44880449 60.9453125 107.671875 C60.17767578 107.20910156 59.41003906 106.74632812 58.61914062 106.26953125 C57.79607422 105.76808594 56.97300781 105.26664062 56.125 104.75 C55.25294922 104.22277344 54.38089844 103.69554687 53.48242188 103.15234375 C50.65220526 101.43937069 47.82566522 99.72046938 45 98 C44.05608398 97.42572266 43.11216797 96.85144531 42.13964844 96.25976562 C38.29792197 93.92200635 34.45678971 91.58327794 30.61694336 89.24243164 C23.98683989 85.20229141 17.3438654 81.18422595 10.6875 77.1875 C9.41519531 76.42276367 9.41519531 76.42276367 8.1171875 75.64257812 C7.33988281 75.17658203 6.56257813 74.71058594 5.76171875 74.23046875 C5.08069092 73.82207764 4.39966309 73.41368652 3.69799805 72.99291992 C2.48922125 72.28607661 1.25244363 71.62622182 0 71 C0 47.57 0 24.14 0 0 Z " fill="#6F3284" transform="translate(70,43)"/>
<path d="M0 0 C28.71 0 57.42 0 87 0 C87 6.6 87 13.2 87 20 C76.77 20 66.54 20 56 20 C56 46.4 56 72.8 56 100 C48.08 100 40.16 100 32 100 C32 73.6 32 47.2 32 20 C21.44 20 10.88 20 0 20 C0 13.4 0 6.8 0 0 Z " fill="#FFFFFF" transform="translate(328,23)"/>
<path d="M0 0 C7.92 0 15.84 0 24 0 C24 26.73 24 53.46 24 81 C40.5 81 57 81 74 81 C74 87.27 74 93.54 74 100 C49.58 100 25.16 100 0 100 C0 67 0 34 0 0 Z " fill="#FFFFFF" transform="translate(920,150)"/>
<path d="M0 0 C7.92 0 15.84 0 24 0 C24 33 24 66 24 100 C16.08 100 8.16 100 0 100 C0 67 0 34 0 0 Z " fill="#FFFFFF" transform="translate(765,150)"/>
<path d="M0 0 C7.92 0 15.84 0 24 0 C24 33 24 66 24 100 C16.08 100 8.16 100 0 100 C0 67 0 34 0 0 Z " fill="#FFFFFF" transform="translate(628,150)"/>
<path d="M0 0 C1.65 0 3.3 0 5 0 C5 75.24 5 150.48 5 228 C3.35 228 1.7 228 0 228 C0 152.76 0 77.52 0 0 Z " fill="#FFFFFF" transform="translate(303,23)"/>
</svg>
