<svg width="158" height="158" viewBox="0 0 158 158" fill="none" xmlns="http://www.w3.org/2000/svg">
<path d="M144.914 151.132C144.914 147.791 147.616 145.089 150.958 145.089C154.299 145.089 157.001 147.791 157.001 151.132C157.001 154.473 154.299 157.175 150.958 157.175C147.646 157.175 144.929 154.459 144.914 151.132ZM114.829 157.19C118.17 157.19 120.872 154.488 120.872 151.146C120.872 147.805 118.17 145.103 114.829 145.103C111.488 145.103 108.786 147.805 108.786 151.146C108.786 154.459 111.502 157.175 114.829 157.19ZM78.7006 157.175C82.0418 157.175 84.7438 154.473 84.7438 151.132C84.7438 147.791 82.0418 145.089 78.7006 145.089C75.3594 145.089 72.6574 147.791 72.6574 151.132C72.6574 154.473 75.3594 157.175 78.7006 157.175ZM42.5576 157.175C45.8988 157.175 48.6008 154.473 48.6008 151.132C48.6008 147.791 45.8987 145.089 42.5575 145.089C39.2163 145.089 36.5143 147.791 36.5143 151.132C36.5143 154.473 39.2164 157.175 42.5576 157.175ZM6.4145 157.175C9.7557 157.175 12.4577 154.473 12.4577 151.132C12.4577 147.791 9.75566 145.089 6.41445 145.089C3.07326 145.089 0.371239 147.791 0.371233 151.132C0.371239 154.473 3.0733 157.175 6.4145 157.175ZM150.972 121.047C154.313 121.047 157.015 118.345 157.015 115.003C157.015 111.662 154.313 108.96 150.972 108.96C147.631 108.96 144.929 111.662 144.929 115.003C144.914 118.33 147.631 121.047 150.972 121.047ZM114.829 121.047C118.17 121.047 120.872 118.345 120.872 115.003C120.872 111.662 118.17 108.96 114.829 108.96C111.488 108.96 108.786 111.662 108.786 115.003C108.8 118.33 111.502 121.032 114.829 121.047ZM78.6861 121.047C82.0273 121.047 84.7293 118.345 84.7293 115.003C84.7293 111.662 82.0273 108.96 78.6861 108.96C75.3449 108.96 72.6429 111.662 72.6429 115.003C72.6574 118.33 75.3594 121.032 78.6861 121.047ZM42.5576 121.032C45.8988 121.032 48.6008 118.33 48.6008 114.989C48.6008 111.648 45.8987 108.946 42.5575 108.946C39.2163 108.946 36.5143 111.648 36.5143 114.989C36.5143 118.33 39.2164 121.032 42.5576 121.032ZM6.4145 121.032C9.7557 121.032 12.4577 118.33 12.4577 114.989C12.4577 111.648 9.75565 108.946 6.41445 108.946C3.07326 108.946 0.371228 111.648 0.371228 114.989C0.371239 118.33 3.07331 121.032 6.4145 121.032ZM150.972 84.9035C154.313 84.9035 157.015 82.2014 157.015 78.8602C157.015 75.519 154.313 72.817 150.972 72.817C147.631 72.817 144.929 75.519 144.929 78.8602C144.929 82.2014 147.631 84.9035 150.972 84.9035ZM114.829 84.9035C118.17 84.9035 120.872 82.2015 120.872 78.8603C120.872 75.5191 118.17 72.817 114.829 72.817C111.488 72.817 108.786 75.519 108.786 78.8602C108.786 82.2014 111.488 84.9035 114.829 84.9035ZM78.6861 84.9035C82.0273 84.9035 84.7293 82.2015 84.7293 78.8603C84.7293 75.5191 82.0273 72.817 78.6861 72.817C75.3449 72.817 72.6429 75.519 72.6429 78.8602C72.6574 82.1869 75.3594 84.889 78.6861 84.9035ZM42.543 84.9035C45.8842 84.9035 48.5863 82.2015 48.5863 78.8603C48.5863 75.5191 45.8842 72.817 42.543 72.817C39.2018 72.817 36.4998 75.519 36.4998 78.8602C36.5143 82.1869 39.2164 84.889 42.543 84.9035ZM6.4145 84.889C9.75569 84.889 12.4577 82.1869 12.4577 78.8457C12.4577 75.5045 9.75565 72.8025 6.41446 72.8025C3.07324 72.8025 0.371228 75.5045 0.371239 78.8457C0.371228 82.1869 3.07329 84.889 6.4145 84.889ZM150.972 48.7604C154.313 48.7604 157.015 46.0584 157.015 42.7172C157.016 39.376 154.313 36.6739 150.972 36.6739C147.631 36.6739 144.929 39.376 144.929 42.7172C144.929 46.0584 147.631 48.7604 150.972 48.7604ZM114.829 48.7604C118.17 48.7604 120.872 46.0584 120.872 42.7172C120.872 39.376 118.17 36.6739 114.829 36.6739C111.488 36.6739 108.786 39.376 108.786 42.7172C108.786 46.0584 111.488 48.7604 114.829 48.7604ZM78.6861 48.7604C82.0273 48.7604 84.7293 46.0584 84.7293 42.7172C84.7293 39.376 82.0273 36.6739 78.6861 36.6739C75.3449 36.6739 72.6429 39.376 72.6429 42.7172C72.6429 46.0584 75.3449 48.7604 78.6861 48.7604ZM42.543 48.7604C45.8842 48.7604 48.5863 46.0584 48.5863 42.7172C48.5863 39.376 45.8842 36.6739 42.543 36.6739C39.2018 36.6739 36.4998 39.376 36.4998 42.7172C36.5143 46.0438 39.2164 48.7459 42.543 48.7604ZM6.39996 48.7604C9.74116 48.7604 12.4432 46.0584 12.4432 42.7172C12.4432 39.376 9.74111 36.6739 6.39991 36.6739C3.05872 36.6739 0.356694 39.376 0.356694 42.7172C0.371217 46.0438 3.07329 48.7459 6.39996 48.7604ZM150.972 12.6174C154.313 12.6174 157.015 9.91533 157.015 6.57413C157.015 3.23293 154.313 0.530871 150.972 0.53087C147.631 0.530868 144.929 3.23289 144.929 6.57409C144.929 9.91529 147.631 12.6174 150.972 12.6174ZM114.829 12.6174C118.17 12.6174 120.872 9.91533 120.872 6.57413C120.872 3.23294 118.17 0.530866 114.829 0.530861C111.488 0.530865 108.786 3.23288 108.786 6.57408C108.786 9.91528 111.488 12.6174 114.829 12.6174ZM78.6861 12.6173C82.0273 12.6173 84.7293 9.91532 84.7293 6.57413C84.7293 3.23292 82.0273 0.530861 78.6861 0.530866C75.3449 0.530858 72.6428 3.23288 72.6429 6.57409C72.6429 9.91528 75.3449 12.6173 78.6861 12.6173ZM42.543 12.6173C45.8842 12.6174 48.5863 9.91533 48.5863 6.57412C48.5863 3.23293 45.8842 0.530856 42.543 0.530861C39.2018 0.530866 36.4998 3.23289 36.4998 6.57408C36.4998 9.91528 39.2018 12.6173 42.543 12.6173ZM6.39996 12.6174C9.74116 12.6173 12.4432 9.91533 12.4432 6.57413C12.4432 3.23293 9.74112 0.530866 6.39991 0.530856C3.05872 0.530861 0.356694 3.23288 0.356689 6.57408C0.3567 9.91528 3.07328 12.6028 6.39996 12.6174Z" fill="#260939"/>
</svg>
